# xmcd
#
# Track frame offsets:
#	150
#	16885
#	44147
#	69622
#
# Disc length: 1300 seconds
#
# Revision: 0
# Processed by: cddbd v1.5.1PL0 Copyright (c) Steve Scherf et al.
# Submitted via: audiograbber 1.83.01
#
DISCID=33051204
DTITLE=Paranoia X - Tequila
DYEAR=1900
DGENRE=Dance
TTITLE0=Tequila (Video Mix)
TTITLE1=Tequila
TTITLE2=Party Programm
TTITLE3=Spring Feelings
EXTD=
EXTT0=
EXTT1=
EXTT2=
EXTT3=
PLAYORDER=
